<svg xmlns="http://www.w3.org/2000/svg" width="217" height="217" viewBox="0 0 217 217" fill="none"><g filter="url(#filter0_d)"><rect x="8" y="8" width="201" height="201" rx="8" fill="white"></rect><rect x="8.5" y="8.5" width="200" height="200" rx="7.5" fill="#F9FAFA" stroke="#D5D5D5"></rect><path d="M58.596 182.2H62.586C63.622 182.2 64.5367 182.41 65.33 182.83C66.1233 183.241 66.7393 183.819 67.178 184.566C67.6167 185.303 67.836 186.148 67.836 187.1C67.836 188.052 67.6167 188.901 67.178 189.648C66.7393 190.385 66.1233 190.964 65.33 191.384C64.5367 191.795 63.622 192 62.586 192H58.596V182.2ZM62.53 191.104C63.3887 191.104 64.14 190.936 64.784 190.6C65.428 190.255 65.9273 189.783 66.282 189.186C66.6367 188.579 66.814 187.884 66.814 187.1C66.814 186.316 66.6367 185.625 66.282 185.028C65.9273 184.421 65.428 183.95 64.784 183.614C64.14 183.269 63.3887 183.096 62.53 183.096H59.632V191.104H62.53ZM72.7524 192.07C72.0431 192.07 71.4037 191.911 70.8344 191.594C70.2651 191.267 69.8171 190.819 69.4904 190.25C69.1637 189.681 69.0004 189.037 69.0004 188.318C69.0004 187.599 69.1637 186.955 69.4904 186.386C69.8171 185.817 70.2651 185.373 70.8344 185.056C71.4037 184.739 72.0431 184.58 72.7524 184.58C73.4617 184.58 74.1011 184.739 74.6704 185.056C75.2397 185.373 75.6831 185.817 76.0004 186.386C76.3271 186.955 76.4904 187.599 76.4904 188.318C76.4904 189.037 76.3271 189.681 76.0004 190.25C75.6831 190.819 75.2397 191.267 74.6704 191.594C74.1011 191.911 73.4617 192.07 72.7524 192.07ZM72.7524 191.188C73.2751 191.188 73.7417 191.071 74.1524 190.838C74.5724 190.595 74.8991 190.255 75.1324 189.816C75.3657 189.377 75.4824 188.878 75.4824 188.318C75.4824 187.758 75.3657 187.259 75.1324 186.82C74.8991 186.381 74.5724 186.045 74.1524 185.812C73.7417 185.569 73.2751 185.448 72.7524 185.448C72.2297 185.448 71.7584 185.569 71.3384 185.812C70.9277 186.045 70.6011 186.381 70.3584 186.82C70.1251 187.259 70.0084 187.758 70.0084 188.318C70.0084 188.878 70.1251 189.377 70.3584 189.816C70.6011 190.255 70.9277 190.595 71.3384 190.838C71.7584 191.071 72.2297 191.188 72.7524 191.188ZM88.9127 184.636L86.1267 192H85.1887L82.8647 185.966L80.5407 192H79.6027L76.8307 184.636H77.7827L80.0927 190.894L82.4587 184.636H83.3127L85.6647 190.894L88.0027 184.636H88.9127ZM93.9514 184.58C94.8754 184.58 95.608 184.851 96.1494 185.392C96.7 185.924 96.9754 186.703 96.9754 187.73V192H95.9814V187.828C95.9814 187.063 95.79 186.479 95.4074 186.078C95.0247 185.677 94.4787 185.476 93.7694 185.476C92.976 185.476 92.346 185.714 91.8794 186.19C91.422 186.657 91.1934 187.305 91.1934 188.136V192H90.1994V184.636H91.1514V185.994C91.422 185.546 91.7954 185.201 92.2714 184.958C92.7567 184.706 93.3167 184.58 93.9514 184.58ZM99.464 181.612H100.458V192H99.464V181.612ZM106.024 192.07C105.314 192.07 104.675 191.911 104.106 191.594C103.536 191.267 103.088 190.819 102.762 190.25C102.435 189.681 102.272 189.037 102.272 188.318C102.272 187.599 102.435 186.955 102.762 186.386C103.088 185.817 103.536 185.373 104.106 185.056C104.675 184.739 105.314 184.58 106.024 184.58C106.733 184.58 107.372 184.739 107.942 185.056C108.511 185.373 108.954 185.817 109.272 186.386C109.598 186.955 109.762 187.599 109.762 188.318C109.762 189.037 109.598 189.681 109.272 190.25C108.954 190.819 108.511 191.267 107.942 191.594C107.372 191.911 106.733 192.07 106.024 192.07ZM106.024 191.188C106.546 191.188 107.013 191.071 107.424 190.838C107.844 190.595 108.17 190.255 108.404 189.816C108.637 189.377 108.754 188.878 108.754 188.318C108.754 187.758 108.637 187.259 108.404 186.82C108.17 186.381 107.844 186.045 107.424 185.812C107.013 185.569 106.546 185.448 106.024 185.448C105.501 185.448 105.03 185.569 104.61 185.812C104.199 186.045 103.872 186.381 103.63 186.82C103.396 187.259 103.28 187.758 103.28 188.318C103.28 188.878 103.396 189.377 103.63 189.816C103.872 190.255 104.199 190.595 104.61 190.838C105.03 191.071 105.501 191.188 106.024 191.188ZM114.116 184.58C115.077 184.58 115.815 184.823 116.328 185.308C116.841 185.784 117.098 186.493 117.098 187.436V192H116.146V190.852C115.922 191.235 115.591 191.533 115.152 191.748C114.723 191.963 114.209 192.07 113.612 192.07C112.791 192.07 112.137 191.874 111.652 191.482C111.167 191.09 110.924 190.572 110.924 189.928C110.924 189.303 111.148 188.799 111.596 188.416C112.053 188.033 112.777 187.842 113.766 187.842H116.104V187.394C116.104 186.759 115.927 186.279 115.572 185.952C115.217 185.616 114.699 185.448 114.018 185.448C113.551 185.448 113.103 185.527 112.674 185.686C112.245 185.835 111.876 186.045 111.568 186.316L111.12 185.574C111.493 185.257 111.941 185.014 112.464 184.846C112.987 184.669 113.537 184.58 114.116 184.58ZM113.766 191.286C114.326 191.286 114.807 191.16 115.208 190.908C115.609 190.647 115.908 190.273 116.104 189.788V188.584H113.794C112.534 188.584 111.904 189.023 111.904 189.9C111.904 190.329 112.067 190.67 112.394 190.922C112.721 191.165 113.178 191.286 113.766 191.286ZM126.335 181.612V192H125.383V190.544C125.085 191.039 124.688 191.417 124.193 191.678C123.708 191.939 123.157 192.07 122.541 192.07C121.851 192.07 121.225 191.911 120.665 191.594C120.105 191.277 119.667 190.833 119.349 190.264C119.032 189.695 118.873 189.046 118.873 188.318C118.873 187.59 119.032 186.941 119.349 186.372C119.667 185.803 120.105 185.364 120.665 185.056C121.225 184.739 121.851 184.58 122.541 184.58C123.139 184.58 123.675 184.706 124.151 184.958C124.637 185.201 125.033 185.56 125.341 186.036V181.612H126.335ZM122.625 191.188C123.139 191.188 123.601 191.071 124.011 190.838C124.431 190.595 124.758 190.255 124.991 189.816C125.234 189.377 125.355 188.878 125.355 188.318C125.355 187.758 125.234 187.259 124.991 186.82C124.758 186.381 124.431 186.045 124.011 185.812C123.601 185.569 123.139 185.448 122.625 185.448C122.103 185.448 121.631 185.569 121.211 185.812C120.801 186.045 120.474 186.381 120.231 186.82C119.998 187.259 119.881 187.758 119.881 188.318C119.881 188.878 119.998 189.377 120.231 189.816C120.474 190.255 120.801 190.595 121.211 190.838C121.631 191.071 122.103 191.188 122.625 191.188ZM136.226 182.2C137.476 182.2 138.456 182.499 139.166 183.096C139.875 183.693 140.23 184.515 140.23 185.56C140.23 186.605 139.875 187.427 139.166 188.024C138.456 188.612 137.476 188.906 136.226 188.906H133.594V192H132.558V182.2H136.226ZM136.198 187.996C137.168 187.996 137.91 187.786 138.424 187.366C138.937 186.937 139.194 186.335 139.194 185.56C139.194 184.767 138.937 184.16 138.424 183.74C137.91 183.311 137.168 183.096 136.198 183.096H133.594V187.996H136.198ZM142.26 182.2H146.25C147.286 182.2 148.2 182.41 148.994 182.83C149.787 183.241 150.403 183.819 150.842 184.566C151.28 185.303 151.5 186.148 151.5 187.1C151.5 188.052 151.28 188.901 150.842 189.648C150.403 190.385 149.787 190.964 148.994 191.384C148.2 191.795 147.286 192 146.25 192H142.26V182.2ZM146.194 191.104C147.052 191.104 147.804 190.936 148.448 190.6C149.092 190.255 149.591 189.783 149.946 189.186C150.3 188.579 150.478 187.884 150.478 187.1C150.478 186.316 150.3 185.625 149.946 185.028C149.591 184.421 149.092 183.95 148.448 183.614C147.804 183.269 147.052 183.096 146.194 183.096H143.296V191.104H146.194ZM154.652 183.096V186.946H159.72V187.842H154.652V192H153.616V182.2H160.336V183.096H154.652Z" fill="#04112A" fill-opacity="0.75"></path><path d="M70 130.668V143.668C70 148.454 73.8802 152.335 78.6667 152.335H139.333C144.12 152.335 148 148.454 148 143.668V130.668" stroke="#7E8592" stroke-width="3" stroke-linecap="round" stroke-linejoin="round"></path><path d="M91.667 109L109 126.333L126.334 109" stroke="#7E8592" stroke-width="3" stroke-linecap="round" stroke-linejoin="round"></path><path d="M109 65.668V126.335" stroke="#7E8592" stroke-width="3" stroke-linecap="round" stroke-linejoin="round"></path></g><defs><filter id="filter0_d" x="0" y="0" width="217" height="217" filterUnits="userSpaceOnUse" color-interpolation-filters="sRGB"><feGaussianBlur stdDeviation="4"></feGaussianBlur></filter></defs></svg>