<svg xmlns="http://www.w3.org/2000/svg" width="23" height="22" viewBox="0 0 23 22" fill="none"><path d="M22.1045 21.4374C20.792 21.4062 19.5107 21.4062 18.1982 21.4374C17.917 21.4374 17.8545 21.3749 17.8545 21.0937C17.8545 18.7812 17.8545 16.4374 17.8545 14.1249C17.8545 13.5937 17.8232 13.0624 17.667 12.5624C17.1982 10.9374 15.3232 10.3437 13.9795 11.4374C13.2607 11.9999 12.9795 12.7812 12.9795 13.7187C12.9795 15.9062 12.9795 18.0937 12.9795 20.2812C12.9795 20.5624 12.9482 20.8437 12.9795 21.1562C13.0107 21.4062 12.8857 21.4687 12.667 21.4374C11.3232 21.4374 10.0107 21.4374 8.66699 21.4374C8.41699 21.4374 8.35449 21.3749 8.35449 21.1249C8.38574 19.1562 8.38574 17.1874 8.38574 15.1874C8.38574 12.7499 8.38574 10.3124 8.35449 7.90615C8.35449 7.6249 8.41699 7.5624 8.66699 7.5624C10.0107 7.5624 11.3232 7.5624 12.667 7.5624C12.917 7.5624 12.9795 7.6249 12.9795 7.8749C12.9795 8.3749 12.9795 8.8749 12.9795 9.46865C13.0732 9.3749 13.1045 9.34365 13.1357 9.3124C14.3545 7.53115 16.0732 7.03115 18.1045 7.34365C20.4482 7.71865 21.9482 9.34365 22.3232 11.8437C22.417 12.4374 22.4482 13.0312 22.4482 13.6249C22.4482 16.1249 22.4482 18.5937 22.4482 21.0937C22.4482 21.3437 22.3857 21.4374 22.1045 21.4374Z" fill="white"></path><path d="M5.85449 14.5C5.85449 16.6875 5.85449 18.875 5.85449 21.0625C5.85449 21.3438 5.79199 21.4375 5.51074 21.4375C4.19824 21.4063 2.88574 21.4375 1.57324 21.4375C1.32324 21.4375 1.26074 21.375 1.26074 21.125C1.26074 16.7188 1.26074 12.2813 1.26074 7.875C1.26074 7.65625 1.32324 7.5625 1.57324 7.5625C2.91699 7.5625 4.26074 7.5625 5.60449 7.5625C5.88574 7.5625 5.91699 7.65625 5.91699 7.90625C5.85449 10.0938 5.85449 12.2813 5.85449 14.5Z" fill="white"></path><path d="M6.07303 3.93752C5.76053 5.18752 4.47928 5.90627 3.01053 5.65627C1.44803 5.40627 0.573034 3.87502 1.13553 2.37502C1.51053 1.43752 2.41678 0.875017 3.57303 0.906267C5.32303 0.875017 6.47928 2.28127 6.07303 3.93752Z" fill="white"></path></svg>