<svg xmlns="http://www.w3.org/2000/svg" width="40" height="40" viewBox="0 0 40 40" fill="none"><rect width="40" height="40" rx="8" fill="#293986"></rect><path d="M31.1045 29.4374C29.792 29.4062 28.5107 29.4062 27.1982 29.4374C26.917 29.4374 26.8545 29.3749 26.8545 29.0937C26.8545 26.7812 26.8545 24.4374 26.8545 22.1249C26.8545 21.5937 26.8232 21.0624 26.667 20.5624C26.1982 18.9374 24.3232 18.3437 22.9795 19.4374C22.2607 19.9999 21.9795 20.7812 21.9795 21.7187C21.9795 23.9062 21.9795 26.0937 21.9795 28.2812C21.9795 28.5624 21.9482 28.8437 21.9795 29.1562C22.0107 29.4062 21.8857 29.4687 21.667 29.4374C20.3232 29.4374 19.0107 29.4374 17.667 29.4374C17.417 29.4374 17.3545 29.3749 17.3545 29.1249C17.3857 27.1562 17.3857 25.1874 17.3857 23.1874C17.3857 20.7499 17.3857 18.3124 17.3545 15.9062C17.3545 15.6249 17.417 15.5624 17.667 15.5624C19.0107 15.5624 20.3232 15.5624 21.667 15.5624C21.917 15.5624 21.9795 15.6249 21.9795 15.8749C21.9795 16.3749 21.9795 16.8749 21.9795 17.4687C22.0732 17.3749 22.1045 17.3437 22.1357 17.3124C23.3545 15.5312 25.0732 15.0312 27.1045 15.3437C29.4482 15.7187 30.9482 17.3437 31.3232 19.8437C31.417 20.4374 31.4482 21.0312 31.4482 21.6249C31.4482 24.1249 31.4482 26.5937 31.4482 29.0937C31.4482 29.3437 31.3857 29.4374 31.1045 29.4374Z" fill="white"></path><path d="M14.8545 22.5C14.8545 24.6875 14.8545 26.875 14.8545 29.0625C14.8545 29.3438 14.792 29.4375 14.5107 29.4375C13.1982 29.4063 11.8857 29.4375 10.5732 29.4375C10.3232 29.4375 10.2607 29.375 10.2607 29.125C10.2607 24.7188 10.2607 20.2813 10.2607 15.875C10.2607 15.6563 10.3232 15.5625 10.5732 15.5625C11.917 15.5625 13.2607 15.5625 14.6045 15.5625C14.8857 15.5625 14.917 15.6563 14.917 15.9063C14.8545 18.0938 14.8545 20.2813 14.8545 22.5Z" fill="white"></path><path d="M15.073 11.9375C14.7605 13.1875 13.4793 13.9063 12.0105 13.6563C10.448 13.4063 9.57303 11.875 10.1355 10.375C10.5105 9.43752 11.4168 8.87502 12.573 8.90627C14.323 8.87502 15.4793 10.2813 15.073 11.9375Z" fill="white"></path></svg>