<svg xmlns="http://www.w3.org/2000/svg" width="40" height="40" viewBox="0 0 40 40" fill="none"><rect width="40" height="40" rx="8" fill="#293986"></rect><path d="M29.8022 15.677C29.8022 15.8958 29.8022 16.1145 29.8022 16.302C29.8022 22.7708 24.8647 30.2395 15.8647 30.2395C13.0835 30.2395 10.521 29.427 8.3335 28.052C8.7085 28.0833 9.11475 28.1145 9.48975 28.1145C11.771 28.1145 13.896 27.3333 15.5835 26.0208C13.4272 25.9895 11.6147 24.552 11.021 22.6145C11.3335 22.677 11.6147 22.7083 11.9585 22.7083C12.396 22.7083 12.8335 22.6458 13.2397 22.5208C10.9897 22.0833 9.30225 20.1145 9.30225 17.7395C9.30225 17.7083 9.30225 17.7083 9.30225 17.677C9.9585 18.052 10.7085 18.2708 11.521 18.302C10.2085 17.427 9.3335 15.927 9.3335 14.2083C9.3335 13.302 9.5835 12.4583 9.98975 11.7395C12.396 14.7083 16.021 16.6458 20.0835 16.8645C19.9897 16.5208 19.9585 16.1145 19.9585 15.7395C19.9585 13.0208 22.146 10.8333 24.8647 10.8333C26.271 10.8333 27.5522 11.427 28.4272 12.3645C29.5522 12.1458 30.5835 11.7395 31.5522 11.177C31.1772 12.3333 30.396 13.2708 29.396 13.8958C30.396 13.7708 31.3335 13.5208 32.2085 13.1145C31.5835 14.1145 30.771 14.9895 29.8022 15.677Z" fill="white"></path></svg>